<mxfile host="app.diagrams.net" agent="Mozilla/5.0 (Windows NT 10.0; Win64; x64) AppleWebKit/537.36 (KHTML, like Gecko) Chrome/130.0.0.0 Safari/537.36" version="24.8.4">
  <diagram id="-O0Wlg9mMegEO51B1gR6" name="Page-1">
    <mxGraphModel grid="1" page="0" gridSize="10" guides="1" tooltips="1" connect="1" arrows="1" fold="1" pageScale="1" pageWidth="827" pageHeight="1169" background="none" math="0" shadow="0">
      <root>
        <mxCell id="0" />
        <mxCell id="1" parent="0" />
        <mxCell id="PNS8P4c1NNTHHl6IVYCe-1" style="edgeStyle=orthogonalEdgeStyle;rounded=0;orthogonalLoop=1;jettySize=auto;html=1;exitX=0.5;exitY=1;exitDx=0;exitDy=0;entryX=0.5;entryY=0;entryDx=0;entryDy=0;startArrow=none;startFill=0;startSize=12;endArrow=none;endFill=0;" edge="1" parent="1" source="node4" target="node9">
          <mxGeometry relative="1" as="geometry">
            <Array as="points">
              <mxPoint x="730" y="880" />
              <mxPoint x="275" y="880" />
            </Array>
          </mxGeometry>
        </mxCell>
        <mxCell id="PNS8P4c1NNTHHl6IVYCe-3" value="&lt;font style=&quot;font-size: 18px;&quot;&gt;*&lt;/font&gt;" style="edgeLabel;html=1;align=center;verticalAlign=middle;resizable=0;points=[];" vertex="1" connectable="0" parent="PNS8P4c1NNTHHl6IVYCe-1">
          <mxGeometry x="0.9685" y="1" relative="1" as="geometry">
            <mxPoint x="14" as="offset" />
          </mxGeometry>
        </mxCell>
        <mxCell id="PNS8P4c1NNTHHl6IVYCe-8" value="&lt;font style=&quot;font-size: 18px;&quot;&gt;1&lt;/font&gt;" style="edgeLabel;html=1;align=center;verticalAlign=middle;resizable=0;points=[];" vertex="1" connectable="0" parent="PNS8P4c1NNTHHl6IVYCe-1">
          <mxGeometry x="-0.9738" y="1" relative="1" as="geometry">
            <mxPoint x="10" as="offset" />
          </mxGeometry>
        </mxCell>
        <mxCell id="node4" value="&lt;p style=&quot;margin:0px;margin-top:4px;text-align:center;&quot;&gt;&lt;b&gt;Account&lt;/b&gt;&lt;/p&gt;&lt;hr size=&quot;1&quot;/&gt;&lt;p style=&quot;margin:0 0 0 4px;line-height:1.6;&quot;&gt;- username: String&lt;br/&gt;- reviews: Set&amp;lt;Review&amp;gt;&lt;br/&gt;- follows: Set&amp;lt;Account&amp;gt;&lt;br/&gt;- password: String&lt;/p&gt;&lt;hr size=&quot;1&quot;/&gt;&lt;p style=&quot;margin:0 0 0 4px;line-height:1.6;&quot;&gt;+ createAccount(AccountRepository, String, String): Account&lt;br/&gt;+ getReviews(): Set&amp;lt;Review&amp;gt;&lt;br/&gt;+ addReview(Review): boolean&lt;br/&gt;- checkPasswordFormat(String): void&lt;br/&gt;- checkUsernameFormat(String): void&lt;br/&gt;+ getUsername(): String&lt;/p&gt;" style="verticalAlign=top;align=left;overflow=fill;fontSize=14;fontFamily=Helvetica;html=1;rounded=0;shadow=0;comic=0;labelBackgroundColor=none;strokeWidth=1;" vertex="1" parent="1">
          <mxGeometry x="522" y="298" width="415" height="280" as="geometry" />
        </mxCell>
        <mxCell id="node6" value="&lt;p style=&quot;margin:0px;margin-top:4px;text-align:center;&quot;&gt;&lt;b&gt;AccountAPI&lt;/b&gt;&lt;/p&gt;&lt;hr size=&quot;1&quot;/&gt;&lt;p style=&quot;margin:0 0 0 4px;line-height:1.6;&quot;&gt;+ deleteAccount(long): ResponseEntity&amp;lt;String&amp;gt;&lt;br/&gt;+ editAccount(long, Account): ResponseEntity&amp;lt;String&amp;gt;&lt;/p&gt;" style="verticalAlign=top;align=left;overflow=fill;fontSize=14;fontFamily=Helvetica;html=1;rounded=0;shadow=0;comic=0;labelBackgroundColor=none;strokeWidth=1;" vertex="1" parent="1">
          <mxGeometry x="-260" y="1530" width="378" height="94" as="geometry" />
        </mxCell>
        <mxCell id="PNS8P4c1NNTHHl6IVYCe-31" style="edgeStyle=orthogonalEdgeStyle;rounded=0;orthogonalLoop=1;jettySize=auto;html=1;exitX=1;exitY=0.5;exitDx=0;exitDy=0;entryX=0.5;entryY=1;entryDx=0;entryDy=0;startArrow=diamondThin;startFill=1;endArrow=none;endFill=0;endSize=12;startSize=12;" edge="1" parent="1" source="node1" target="node5">
          <mxGeometry relative="1" as="geometry">
            <Array as="points">
              <mxPoint x="130" y="1330" />
              <mxPoint x="130" y="1510" />
              <mxPoint x="655" y="1510" />
            </Array>
          </mxGeometry>
        </mxCell>
        <mxCell id="PNS8P4c1NNTHHl6IVYCe-35" value="&lt;font style=&quot;font-size: 18px;&quot;&gt;*&lt;/font&gt;" style="edgeLabel;html=1;align=center;verticalAlign=middle;resizable=0;points=[];" vertex="1" connectable="0" parent="PNS8P4c1NNTHHl6IVYCe-31">
          <mxGeometry x="0.9654" y="-2" relative="1" as="geometry">
            <mxPoint x="13" y="-2" as="offset" />
          </mxGeometry>
        </mxCell>
        <mxCell id="PNS8P4c1NNTHHl6IVYCe-36" value="&lt;font style=&quot;font-size: 18px;&quot;&gt;1&lt;/font&gt;" style="edgeLabel;html=1;align=center;verticalAlign=middle;resizable=0;points=[];" vertex="1" connectable="0" parent="PNS8P4c1NNTHHl6IVYCe-31">
          <mxGeometry x="-0.9343" y="-1" relative="1" as="geometry">
            <mxPoint y="-16" as="offset" />
          </mxGeometry>
        </mxCell>
        <mxCell id="node1" value="&lt;p style=&quot;margin:0px;margin-top:4px;text-align:center;&quot;&gt;&lt;i&gt;&amp;lt;&amp;lt;interface&amp;gt;&amp;gt;&lt;/i&gt;&lt;br/&gt;&lt;b&gt;AccountRepository&lt;/b&gt;&lt;/p&gt;&lt;hr size=&quot;1&quot;/&gt;&lt;p style=&quot;margin:0 0 0 4px;line-height:1.6;&quot;&gt;+ existsByUsername(String): boolean&lt;br/&gt;+ findByUsername(String): Account&lt;/p&gt;" style="verticalAlign=top;align=left;overflow=fill;fontSize=14;fontFamily=Helvetica;html=1;rounded=0;shadow=0;comic=0;labelBackgroundColor=none;strokeWidth=1;" vertex="1" parent="1">
          <mxGeometry x="-203.5" y="1275.5" width="265" height="109" as="geometry" />
        </mxCell>
        <mxCell id="PNS8P4c1NNTHHl6IVYCe-23" style="edgeStyle=orthogonalEdgeStyle;rounded=0;orthogonalLoop=1;jettySize=auto;html=1;exitX=0.5;exitY=0;exitDx=0;exitDy=0;entryX=0;entryY=0.5;entryDx=0;entryDy=0;endArrow=diamondThin;endFill=1;startArrow=none;startFill=0;startSize=12;endSize=12;" edge="1" parent="1" source="node8" target="node1">
          <mxGeometry relative="1" as="geometry" />
        </mxCell>
        <mxCell id="PNS8P4c1NNTHHl6IVYCe-25" value="&lt;font style=&quot;font-size: 18px;&quot;&gt;1&lt;/font&gt;" style="edgeLabel;html=1;align=center;verticalAlign=middle;resizable=0;points=[];" vertex="1" connectable="0" parent="PNS8P4c1NNTHHl6IVYCe-23">
          <mxGeometry x="0.8598" y="4" relative="1" as="geometry">
            <mxPoint y="-10" as="offset" />
          </mxGeometry>
        </mxCell>
        <mxCell id="node8" value="&lt;p style=&quot;margin:0px;margin-top:4px;text-align:center;&quot;&gt;&lt;b&gt;AccountTemplate&lt;/b&gt;&lt;/p&gt;&lt;hr size=&quot;1&quot;/&gt;&lt;p style=&quot;margin:0 0 0 4px;line-height:1.6;&quot;&gt;- repo: AccountRepository&lt;/p&gt;&lt;hr size=&quot;1&quot;/&gt;&lt;p style=&quot;margin:0 0 0 4px;line-height:1.6;&quot;&gt;+ accountLogin(Model, Account): String&lt;br/&gt;+ registerAccount(Model, Account): String&lt;br/&gt;+ viewAccount(long, Model): String&lt;br/&gt;+ accountRegistration(Model): String&lt;/p&gt;" style="verticalAlign=top;align=left;overflow=fill;fontSize=14;fontFamily=Helvetica;html=1;rounded=0;shadow=0;comic=0;labelBackgroundColor=none;strokeWidth=1;" vertex="1" parent="1">
          <mxGeometry x="-590" y="1370" width="299" height="160" as="geometry" />
        </mxCell>
        <mxCell id="node13" value="&lt;p style=&quot;margin:0px;margin-top:4px;text-align:center;&quot;&gt;&lt;b&gt;DashboardTemplate&lt;/b&gt;&lt;/p&gt;&lt;hr size=&quot;1&quot;/&gt;&lt;p style=&quot;margin:0 0 0 4px;line-height:1.6;&quot;&gt;- productRepo: ProductRepository&lt;/p&gt;&lt;hr size=&quot;1&quot;/&gt;&lt;p style=&quot;margin:0 0 0 4px;line-height:1.6;&quot;&gt;+ dashboard(Model): String&lt;/p&gt;" style="verticalAlign=top;align=left;overflow=fill;fontSize=14;fontFamily=Helvetica;html=1;rounded=0;shadow=0;comic=0;labelBackgroundColor=none;strokeWidth=1;" vertex="1" parent="1">
          <mxGeometry x="-480" y="873" width="249" height="95" as="geometry" />
        </mxCell>
        <mxCell id="node7" value="&lt;p style=&quot;margin:0px;margin-top:4px;text-align:center;&quot;&gt;&lt;b&gt;Patcher&lt;/b&gt;&lt;/p&gt;&lt;hr size=&quot;1&quot;/&gt;&lt;p style=&quot;margin:0 0 0 4px;line-height:1.6;&quot;&gt;+ patch(Object, Object): void&lt;/p&gt;" style="verticalAlign=top;align=left;overflow=fill;fontSize=14;fontFamily=Helvetica;html=1;rounded=0;shadow=0;comic=0;labelBackgroundColor=none;strokeWidth=1;" vertex="1" parent="1">
          <mxGeometry x="880" y="610" width="213" height="68" as="geometry" />
        </mxCell>
        <mxCell id="PNS8P4c1NNTHHl6IVYCe-10" style="edgeStyle=orthogonalEdgeStyle;rounded=0;orthogonalLoop=1;jettySize=auto;html=1;exitX=0.5;exitY=1;exitDx=0;exitDy=0;entryX=0.5;entryY=0;entryDx=0;entryDy=0;endArrow=none;endFill=0;" edge="1" parent="1" source="node2" target="node9">
          <mxGeometry relative="1" as="geometry">
            <Array as="points">
              <mxPoint x="195" y="880" />
              <mxPoint x="275" y="880" />
            </Array>
          </mxGeometry>
        </mxCell>
        <mxCell id="PNS8P4c1NNTHHl6IVYCe-11" value="&lt;font style=&quot;font-size: 18px;&quot;&gt;1&lt;/font&gt;" style="edgeLabel;html=1;align=center;verticalAlign=middle;resizable=0;points=[];" vertex="1" connectable="0" parent="PNS8P4c1NNTHHl6IVYCe-10">
          <mxGeometry x="-0.8729" y="-1" relative="1" as="geometry">
            <mxPoint x="13" y="-4" as="offset" />
          </mxGeometry>
        </mxCell>
        <mxCell id="node2" value="&lt;p style=&quot;margin:0px;margin-top:4px;text-align:center;&quot;&gt;&lt;b&gt;Product&lt;/b&gt;&lt;/p&gt;&lt;hr size=&quot;1&quot;/&gt;&lt;p style=&quot;margin:0 0 0 4px;line-height:1.6;&quot;&gt;- id: Long&lt;br/&gt;- imagePath: String&lt;br/&gt;- loadedImage: Image&lt;br/&gt;- reviews: Set&amp;lt;Review&amp;gt;&lt;br/&gt;- price: float&lt;br/&gt;- description: String&lt;br/&gt;- name: String&lt;br/&gt;- sellerLinks: Set&amp;lt;String&amp;gt;&lt;/p&gt;&lt;hr size=&quot;1&quot;/&gt;&lt;p style=&quot;margin:0 0 0 4px;line-height:1.6;&quot;&gt;- checkImagePath(): void&lt;br/&gt;+ getDescription(): String&lt;br/&gt;- loadImage(): void&lt;br/&gt;+ getReviews(): Set&amp;lt;Review&amp;gt;&lt;br/&gt;+ getReviewScore(): float&lt;br/&gt;+ getName(): String&lt;br/&gt;+ getImage(): Image&lt;br/&gt;+ addReview(Review): void&lt;br/&gt;- checkDescriptionFormat(): void&lt;br/&gt;+ createProduct(ProductRepository, String, float, String, String): Product&lt;br/&gt;+ getPrice(): float&lt;/p&gt;" style="verticalAlign=top;align=left;overflow=fill;fontSize=14;fontFamily=Helvetica;html=1;rounded=0;shadow=0;comic=0;labelBackgroundColor=none;strokeWidth=1;" vertex="1" parent="1">
          <mxGeometry x="-37" y="298" width="464" height="496" as="geometry" />
        </mxCell>
        <mxCell id="node11" value="&lt;p style=&quot;margin:0px;margin-top:4px;text-align:center;&quot;&gt;&lt;b&gt;ProductAPI&lt;/b&gt;&lt;/p&gt;&lt;hr size=&quot;1&quot;/&gt;&lt;p style=&quot;margin:0 0 0 4px;line-height:1.6;&quot;&gt;- productRepo: ProductRepository&lt;/p&gt;&lt;hr size=&quot;1&quot;/&gt;&lt;p style=&quot;margin:0 0 0 4px;line-height:1.6;&quot;&gt;+ displayProductReviews(long): ResponseEntity&amp;lt;?&amp;gt;&lt;br/&gt;+ getProductDetails(long): ResponseEntity&amp;lt;?&amp;gt;&lt;br/&gt;+ submitReview(long, ReviewRequest): ResponseEntity&amp;lt;?&amp;gt;&lt;br/&gt;~ submitReviewByProductName(HttpServletRequest, String, ReviewRequest): String&lt;/p&gt;" style="verticalAlign=top;align=left;overflow=fill;fontSize=14;fontFamily=Helvetica;html=1;rounded=0;shadow=0;comic=0;labelBackgroundColor=none;strokeWidth=1;" vertex="1" parent="1">
          <mxGeometry x="-360" y="1100" width="494" height="160" as="geometry" />
        </mxCell>
        <mxCell id="PNS8P4c1NNTHHl6IVYCe-27" style="edgeStyle=orthogonalEdgeStyle;rounded=0;orthogonalLoop=1;jettySize=auto;html=1;exitX=0;exitY=0.5;exitDx=0;exitDy=0;entryX=1;entryY=0.5;entryDx=0;entryDy=0;endArrow=none;endFill=0;startArrow=diamondThin;startFill=1;startSize=12;" edge="1" parent="1" source="node3" target="node13">
          <mxGeometry relative="1" as="geometry" />
        </mxCell>
        <mxCell id="PNS8P4c1NNTHHl6IVYCe-28" value="&lt;font style=&quot;font-size: 18px;&quot;&gt;1&lt;/font&gt;" style="edgeLabel;html=1;align=center;verticalAlign=middle;resizable=0;points=[];" vertex="1" connectable="0" parent="PNS8P4c1NNTHHl6IVYCe-27">
          <mxGeometry x="-0.4785" relative="1" as="geometry">
            <mxPoint x="7" y="-20" as="offset" />
          </mxGeometry>
        </mxCell>
        <mxCell id="node3" value="&lt;p style=&quot;margin:0px;margin-top:4px;text-align:center;&quot;&gt;&lt;i&gt;&amp;lt;&amp;lt;interface&amp;gt;&amp;gt;&lt;/i&gt;&lt;br/&gt;&lt;b&gt;ProductRepository&lt;/b&gt;&lt;/p&gt;&lt;hr size=&quot;1&quot;/&gt;&lt;p style=&quot;margin:0 0 0 4px;line-height:1.6;&quot;&gt;+ findByName(String): Product&lt;br/&gt;+ existsByName(String): boolean&lt;/p&gt;" style="verticalAlign=top;align=left;overflow=fill;fontSize=14;fontFamily=Helvetica;html=1;rounded=0;shadow=0;comic=0;labelBackgroundColor=none;strokeWidth=1;" vertex="1" parent="1">
          <mxGeometry x="-130" y="866" width="237" height="109" as="geometry" />
        </mxCell>
        <mxCell id="node0" value="&lt;p style=&quot;margin:0px;margin-top:4px;text-align:center;&quot;&gt;&lt;b&gt;ProductReviewsApplication&lt;/b&gt;&lt;/p&gt;&lt;hr size=&quot;1&quot;/&gt;&lt;p style=&quot;margin:0 0 0 4px;line-height:1.6;&quot;&gt;+ LOGGER: Logger&lt;/p&gt;&lt;hr size=&quot;1&quot;/&gt;&lt;p style=&quot;margin:0 0 0 4px;line-height:1.6;&quot;&gt;~ commandLineRunner(ProductRepository): CommandLineRunner&lt;br/&gt;+ main(String[]): void&lt;/p&gt;" style="verticalAlign=top;align=left;overflow=fill;fontSize=14;fontFamily=Helvetica;html=1;rounded=0;shadow=0;comic=0;labelBackgroundColor=none;strokeWidth=1;" vertex="1" parent="1">
          <mxGeometry x="880" y="794" width="442" height="121" as="geometry" />
        </mxCell>
        <mxCell id="node9" value="&lt;p style=&quot;margin:0px;margin-top:4px;text-align:center;&quot;&gt;&lt;b&gt;Review&lt;/b&gt;&lt;/p&gt;&lt;hr size=&quot;1&quot;/&gt;&lt;p style=&quot;margin:0 0 0 4px;line-height:1.6;&quot;&gt;- product: Product&lt;br/&gt;- body: String&lt;br/&gt;- account: Account&lt;br/&gt;- rating: Star&lt;br/&gt;- reviewID: long&lt;/p&gt;&lt;hr size=&quot;1&quot;/&gt;&lt;p style=&quot;margin:0 0 0 4px;line-height:1.6;&quot;&gt;+ setProduct(Product): void&lt;br/&gt;+ getReviewID(): long&lt;br/&gt;+ setBody(String): void&lt;br/&gt;+ getRating(): Star&lt;br/&gt;+ toString(): String&lt;br/&gt;+ getBody(): String&lt;br/&gt;+ getAccount(): Account&lt;br/&gt;+ getProduct(): Product&lt;br/&gt;+ setReviewID(long): void&lt;br/&gt;+ setAccount(Account): void&lt;br/&gt;+ setRating(Star): void&lt;br/&gt;+ equals(Object): boolean&lt;/p&gt;" style="verticalAlign=top;align=left;overflow=fill;fontSize=14;fontFamily=Helvetica;html=1;rounded=0;shadow=0;comic=0;labelBackgroundColor=none;strokeWidth=1;" vertex="1" parent="1">
          <mxGeometry x="169" y="1022" width="212" height="448" as="geometry" />
        </mxCell>
        <mxCell id="PNS8P4c1NNTHHl6IVYCe-13" style="edgeStyle=orthogonalEdgeStyle;rounded=0;orthogonalLoop=1;jettySize=auto;html=1;exitX=0.5;exitY=0;exitDx=0;exitDy=0;entryX=0.5;entryY=1;entryDx=0;entryDy=0;endArrow=diamondThin;endFill=1;endSize=12;" edge="1" parent="1" source="node15" target="node10">
          <mxGeometry relative="1" as="geometry" />
        </mxCell>
        <mxCell id="PNS8P4c1NNTHHl6IVYCe-14" value="&lt;font style=&quot;font-size: 18px;&quot;&gt;*&lt;/font&gt;" style="edgeLabel;html=1;align=center;verticalAlign=middle;resizable=0;points=[];" vertex="1" connectable="0" parent="PNS8P4c1NNTHHl6IVYCe-13">
          <mxGeometry x="0.2687" y="-3" relative="1" as="geometry">
            <mxPoint x="14" y="40" as="offset" />
          </mxGeometry>
        </mxCell>
        <mxCell id="PNS8P4c1NNTHHl6IVYCe-16" value="&lt;font style=&quot;font-size: 18px;&quot;&gt;1&lt;/font&gt;" style="edgeLabel;html=1;align=center;verticalAlign=middle;resizable=0;points=[];" vertex="1" connectable="0" parent="PNS8P4c1NNTHHl6IVYCe-13">
          <mxGeometry x="0.4316" relative="1" as="geometry">
            <mxPoint x="17" y="-12" as="offset" />
          </mxGeometry>
        </mxCell>
        <mxCell id="node15" value="&lt;p style=&quot;margin:0px;margin-top:4px;text-align:center;&quot;&gt;&lt;b&gt;ReviewAPI&lt;/b&gt;&lt;/p&gt;&lt;hr size=&quot;1&quot;/&gt;&lt;p style=&quot;margin:0 0 0 4px;line-height:1.6;&quot;&gt;- reviewRepo: ReviewRepository&lt;/p&gt;&lt;hr size=&quot;1&quot;/&gt;&lt;p style=&quot;margin:0 0 0 4px;line-height:1.6;&quot;&gt;~ editReview(Review): ResponseEntity&amp;lt;Review&amp;gt;&lt;br/&gt;~ deleteReview(long): ResponseEntity&amp;lt;String&amp;gt;&lt;/p&gt;" style="verticalAlign=top;align=left;overflow=fill;fontSize=14;fontFamily=Helvetica;html=1;rounded=0;shadow=0;comic=0;labelBackgroundColor=none;strokeWidth=1;" vertex="1" parent="1">
          <mxGeometry x="425" y="1070" width="337" height="121" as="geometry" />
        </mxCell>
        <mxCell id="node10" value="&lt;p style=&quot;margin:0px;margin-top:4px;text-align:center;&quot;&gt;&lt;i&gt;&amp;lt;&amp;lt;interface&amp;gt;&amp;gt;&lt;/i&gt;&lt;br/&gt;&lt;b&gt;ReviewRepository&lt;/b&gt;&lt;/p&gt;&lt;hr size=&quot;1&quot;/&gt;" style="verticalAlign=top;align=left;overflow=fill;fontSize=14;fontFamily=Helvetica;html=1;rounded=0;shadow=0;comic=0;labelBackgroundColor=none;strokeWidth=1;" vertex="1" parent="1">
          <mxGeometry x="500" y="940" width="187" height="35" as="geometry" />
        </mxCell>
        <mxCell id="node14" value="&lt;p style=&quot;margin:0px;margin-top:4px;text-align:center;&quot;&gt;&lt;b&gt;ReviewRequest&lt;/b&gt;&lt;/p&gt;&lt;hr size=&quot;1&quot;/&gt;&lt;p style=&quot;margin:0 0 0 4px;line-height:1.6;&quot;&gt;- body: String&lt;br/&gt;- rating: String&lt;/p&gt;&lt;hr size=&quot;1&quot;/&gt;&lt;p style=&quot;margin:0 0 0 4px;line-height:1.6;&quot;&gt;+ toReview(Account): Review&lt;br/&gt;+ setBody(String): void&lt;br/&gt;+ getRating(): String&lt;br/&gt;+ setRating(String): void&lt;br/&gt;- parseRating(): Star&lt;br/&gt;+ getBody(): String&lt;/p&gt;" style="verticalAlign=top;align=left;overflow=fill;fontSize=14;fontFamily=Helvetica;html=1;rounded=0;shadow=0;comic=0;labelBackgroundColor=none;strokeWidth=1;" vertex="1" parent="1">
          <mxGeometry x="880" y="930" width="217" height="232" as="geometry" />
        </mxCell>
        <mxCell id="PNS8P4c1NNTHHl6IVYCe-30" style="edgeStyle=orthogonalEdgeStyle;rounded=0;orthogonalLoop=1;jettySize=auto;html=1;exitX=0.5;exitY=0;exitDx=0;exitDy=0;entryX=1;entryY=0.5;entryDx=0;entryDy=0;endArrow=diamondThin;endFill=1;startSize=11;endSize=12;" edge="1" parent="1" source="node5" target="node3">
          <mxGeometry relative="1" as="geometry">
            <Array as="points">
              <mxPoint x="655" y="1220" />
              <mxPoint x="410" y="1220" />
              <mxPoint x="410" y="921" />
            </Array>
          </mxGeometry>
        </mxCell>
        <mxCell id="PNS8P4c1NNTHHl6IVYCe-33" value="&lt;font style=&quot;font-size: 18px;&quot;&gt;*&lt;/font&gt;" style="edgeLabel;html=1;align=center;verticalAlign=middle;resizable=0;points=[];" vertex="1" connectable="0" parent="PNS8P4c1NNTHHl6IVYCe-30">
          <mxGeometry x="-0.9539" y="-4" relative="1" as="geometry">
            <mxPoint x="11" as="offset" />
          </mxGeometry>
        </mxCell>
        <mxCell id="PNS8P4c1NNTHHl6IVYCe-34" value="&lt;font style=&quot;font-size: 18px;&quot;&gt;1&lt;/font&gt;" style="edgeLabel;html=1;align=center;verticalAlign=middle;resizable=0;points=[];" vertex="1" connectable="0" parent="PNS8P4c1NNTHHl6IVYCe-30">
          <mxGeometry x="0.929" y="3" relative="1" as="geometry">
            <mxPoint y="-24" as="offset" />
          </mxGeometry>
        </mxCell>
        <mxCell id="node5" value="&lt;p style=&quot;margin:0px;margin-top:4px;text-align:center;&quot;&gt;&lt;b&gt;ReviewTemplate&lt;/b&gt;&lt;/p&gt;&lt;hr size=&quot;1&quot;/&gt;&lt;p style=&quot;margin:0 0 0 4px;line-height:1.6;&quot;&gt;- accountRepo: AccountRepository&lt;br/&gt;- productRepo: ProductRepository&lt;/p&gt;&lt;hr size=&quot;1&quot;/&gt;&lt;p style=&quot;margin:0 0 0 4px;line-height:1.6;&quot;&gt;- searchByProductName(String): Set&amp;lt;Review&amp;gt;&lt;br/&gt;- searchByUsernameAndProductName(String, String): Set&amp;lt;Review&amp;gt;&lt;br/&gt;~ myReviews(Model): String&lt;br/&gt;~ getReviews(Optional&amp;lt;String&amp;gt;, Optional&amp;lt;String&amp;gt;, Model): String&lt;br/&gt;- searchByUsername(String): Set&amp;lt;Review&amp;gt;&lt;/p&gt;" style="verticalAlign=top;align=left;overflow=fill;fontSize=14;fontFamily=Helvetica;html=1;rounded=0;shadow=0;comic=0;labelBackgroundColor=none;strokeWidth=1;" vertex="1" parent="1">
          <mxGeometry x="425" y="1250" width="459" height="208" as="geometry" />
        </mxCell>
        <mxCell id="node12" value="&lt;p style=&quot;margin:0px;margin-top:4px;text-align:center;&quot;&gt;&lt;b&gt;WebUtil&lt;/b&gt;&lt;/p&gt;&lt;hr size=&quot;1&quot;/&gt;&lt;p style=&quot;margin:0 0 0 4px;line-height:1.6;&quot;&gt;+ getPreviousPageByRequest(HttpServletRequest): Optional&amp;lt;String&amp;gt;&lt;/p&gt;" style="verticalAlign=top;align=left;overflow=fill;fontSize=14;fontFamily=Helvetica;html=1;rounded=0;shadow=0;comic=0;labelBackgroundColor=none;strokeWidth=1;" vertex="1" parent="1">
          <mxGeometry x="880" y="700" width="466" height="68" as="geometry" />
        </mxCell>
        <mxCell id="PNS8P4c1NNTHHl6IVYCe-4" style="edgeStyle=orthogonalEdgeStyle;rounded=0;orthogonalLoop=1;jettySize=auto;html=1;entryX=1;entryY=0.5;entryDx=0;entryDy=0;endArrow=none;endFill=0;" edge="1" parent="1" source="node4" target="node4">
          <mxGeometry relative="1" as="geometry" />
        </mxCell>
        <mxCell id="PNS8P4c1NNTHHl6IVYCe-5" value="&lt;font style=&quot;font-size: 18px;&quot;&gt;follows&lt;/font&gt;" style="edgeLabel;html=1;align=center;verticalAlign=middle;resizable=0;points=[];" vertex="1" connectable="0" parent="PNS8P4c1NNTHHl6IVYCe-4">
          <mxGeometry x="-0.2397" y="2" relative="1" as="geometry">
            <mxPoint x="-12" y="-16" as="offset" />
          </mxGeometry>
        </mxCell>
        <mxCell id="PNS8P4c1NNTHHl6IVYCe-6" value="&lt;font style=&quot;font-size: 18px;&quot;&gt;1&lt;/font&gt;" style="edgeLabel;html=1;align=center;verticalAlign=middle;resizable=0;points=[];" vertex="1" connectable="0" parent="PNS8P4c1NNTHHl6IVYCe-4">
          <mxGeometry x="-0.8813" y="3" relative="1" as="geometry">
            <mxPoint x="5" y="-15" as="offset" />
          </mxGeometry>
        </mxCell>
        <mxCell id="PNS8P4c1NNTHHl6IVYCe-7" value="&lt;font style=&quot;font-size: 18px;&quot;&gt;*&lt;/font&gt;" style="edgeLabel;html=1;align=center;verticalAlign=middle;resizable=0;points=[];" vertex="1" connectable="0" parent="PNS8P4c1NNTHHl6IVYCe-4">
          <mxGeometry x="0.8496" y="5" relative="1" as="geometry">
            <mxPoint as="offset" />
          </mxGeometry>
        </mxCell>
        <mxCell id="PNS8P4c1NNTHHl6IVYCe-17" style="edgeStyle=orthogonalEdgeStyle;rounded=0;orthogonalLoop=1;jettySize=auto;html=1;exitX=0.5;exitY=0;exitDx=0;exitDy=0;entryX=0.5;entryY=1;entryDx=0;entryDy=0;endArrow=diamondThin;endFill=1;endSize=12;" edge="1" parent="1" source="node11" target="node3">
          <mxGeometry relative="1" as="geometry">
            <mxPoint x="40" y="1060" as="sourcePoint" />
            <mxPoint x="40" y="965" as="targetPoint" />
          </mxGeometry>
        </mxCell>
        <mxCell id="PNS8P4c1NNTHHl6IVYCe-18" value="&lt;font style=&quot;font-size: 18px;&quot;&gt;*&lt;/font&gt;" style="edgeLabel;html=1;align=center;verticalAlign=middle;resizable=0;points=[];" vertex="1" connectable="0" parent="PNS8P4c1NNTHHl6IVYCe-17">
          <mxGeometry x="0.2687" y="-3" relative="1" as="geometry">
            <mxPoint x="-73" y="40" as="offset" />
          </mxGeometry>
        </mxCell>
        <mxCell id="PNS8P4c1NNTHHl6IVYCe-19" value="&lt;font style=&quot;font-size: 18px;&quot;&gt;1&lt;/font&gt;" style="edgeLabel;html=1;align=center;verticalAlign=middle;resizable=0;points=[];" vertex="1" connectable="0" parent="PNS8P4c1NNTHHl6IVYCe-17">
          <mxGeometry x="0.4316" relative="1" as="geometry">
            <mxPoint x="17" y="-39" as="offset" />
          </mxGeometry>
        </mxCell>
        <mxCell id="PNS8P4c1NNTHHl6IVYCe-20" style="edgeStyle=orthogonalEdgeStyle;rounded=0;orthogonalLoop=1;jettySize=auto;html=1;entryX=0.5;entryY=1;entryDx=0;entryDy=0;endArrow=none;endFill=0;endSize=12;exitX=0.5;exitY=0;exitDx=0;exitDy=0;" edge="1" parent="1" source="node6" target="node1">
          <mxGeometry relative="1" as="geometry">
            <mxPoint x="-113.5" y="1470" as="sourcePoint" />
            <mxPoint x="-373.5" y="1315" as="targetPoint" />
          </mxGeometry>
        </mxCell>
        <mxCell id="PNS8P4c1NNTHHl6IVYCe-21" value="&lt;font style=&quot;font-size: 18px;&quot;&gt;1&lt;/font&gt;" style="edgeLabel;html=1;align=center;verticalAlign=middle;resizable=0;points=[];" vertex="1" connectable="0" parent="PNS8P4c1NNTHHl6IVYCe-20">
          <mxGeometry x="0.2687" y="-3" relative="1" as="geometry">
            <mxPoint x="14" y="63" as="offset" />
          </mxGeometry>
        </mxCell>
        <mxCell id="PNS8P4c1NNTHHl6IVYCe-22" value="&lt;font style=&quot;font-size: 18px;&quot;&gt;1&lt;/font&gt;" style="edgeLabel;html=1;align=center;verticalAlign=middle;resizable=0;points=[];" vertex="1" connectable="0" parent="PNS8P4c1NNTHHl6IVYCe-20">
          <mxGeometry x="0.4316" relative="1" as="geometry">
            <mxPoint x="17" y="-12" as="offset" />
          </mxGeometry>
        </mxCell>
        <mxCell id="PNS8P4c1NNTHHl6IVYCe-26" value="&lt;font style=&quot;font-size: 18px;&quot;&gt;*&lt;/font&gt;" style="edgeLabel;html=1;align=center;verticalAlign=middle;resizable=0;points=[];" vertex="1" connectable="0" parent="1">
          <mxGeometry x="-440.4954489805853" y="1330.0042074982525" as="geometry">
            <mxPoint x="-18" y="21" as="offset" />
          </mxGeometry>
        </mxCell>
        <mxCell id="PNS8P4c1NNTHHl6IVYCe-32" value="&lt;font style=&quot;font-size: 18px;&quot;&gt;*&lt;/font&gt;" style="edgeLabel;html=1;align=center;verticalAlign=middle;resizable=0;points=[];" vertex="1" connectable="0" parent="1">
          <mxGeometry x="-130.00111111111084" y="1029.9955555555557" as="geometry">
            <mxPoint x="-91" y="-129" as="offset" />
          </mxGeometry>
        </mxCell>
      </root>
    </mxGraphModel>
  </diagram>
</mxfile>
